<?xml version="1.0" encoding="iso-8859-1"?>
<!-- Generator: Adobe Illustrator 19.0.0, SVG Export Plug-In . SVG Version: 6.00 Build 0)  -->
<svg version="1.1" id="Capa_1" xmlns="http://www.w3.org/2000/svg" xmlns:xlink="http://www.w3.org/1999/xlink" x="0px" y="0px"
	 viewBox="0 0 480.676 480.676" style="enable-background:new 0 0 480.676 480.676;" xml:space="preserve">
<linearGradient id="SVGID_1_" gradientUnits="userSpaceOnUse" x1="-6.1911" y1="558.6513" x2="-6.1911" y2="616.5183" gradientTransform="matrix(8 0 0 -8 453.9435 4943.3965)">
	<stop  offset="0" style="stop-color:#006DF0"/>
	<stop  offset="1" style="stop-color:#00E7F0"/>
</linearGradient>
<path style="fill:url(#SVGID_1_);" d="M454.943,26.042c-34.39-34.307-90.058-34.307-124.448,0c-3.123,3.124-3.123,8.188,0,11.312
	L443.631,150.49c3.124,3.123,8.188,3.123,11.312,0C489.254,116.103,489.254,60.43,454.943,26.042z M448.975,133.242L347.775,32.01
	c31.081-24.802,76.384-19.712,101.187,11.369c20.967,26.275,20.962,63.561-0.011,89.831L448.975,133.242z"/>
<g>
	
		<linearGradient id="SVGID_2_" gradientUnits="userSpaceOnUse" x1="-47.2336" y1="558.6513" x2="-47.2336" y2="616.5183" gradientTransform="matrix(8 0 0 -8 453.9435 4943.3965)">
		<stop  offset="0" style="stop-color:#006DF0"/>
		<stop  offset="1" style="stop-color:#00E7F0"/>
	</linearGradient>
	<path style="fill:url(#SVGID_2_);" d="M149.807,37.354c3.123-3.124,3.123-8.188,0-11.312C115.211-8.093,59.494-7.719,25.359,26.876
		c-33.812,34.268-33.812,89.346,0,123.614c3.124,3.123,8.188,3.123,11.312,0L149.807,37.354z M36.671,37.354
		c25.949-25.886,67.19-28.185,95.856-5.344L31.351,133.21C8.503,104.55,10.792,63.31,36.671,37.354z"/>
	
		<linearGradient id="SVGID_3_" gradientUnits="userSpaceOnUse" x1="-26.7363" y1="558.6513" x2="-26.7363" y2="616.5183" gradientTransform="matrix(8 0 0 -8 453.9435 4943.3965)">
		<stop  offset="0" style="stop-color:#006DF0"/>
		<stop  offset="1" style="stop-color:#00E7F0"/>
	</linearGradient>
	<path style="fill:url(#SVGID_3_);" d="M360.767,389.57c82.503-66.614,95.383-187.498,28.769-270.001S202.038,24.187,119.535,90.801
		S24.152,278.299,90.766,360.802c8.544,10.581,18.187,20.225,28.769,28.769l-77.04,77.04c-3.178,3.07-3.266,8.134-0.196,11.312
		s8.134,3.266,11.312,0.196c0.067-0.064,0.132-0.13,0.196-0.196l78.784-78.784c64.906,44.164,150.214,44.164,215.12,0l78.784,78.784
		c3.178,3.07,8.242,2.982,11.312-0.196c2.995-3.1,2.995-8.016,0-11.116L360.767,389.57z M136.319,382.37
		c-78.485-57.345-95.622-167.456-38.277-245.941s167.456-95.622,245.941-38.277s95.622,167.456,38.277,245.941
		c-10.709,14.656-23.62,27.568-38.277,38.277C282.136,427.559,198.165,427.559,136.319,382.37z"/>
	
		<linearGradient id="SVGID_4_" gradientUnits="userSpaceOnUse" x1="-24.718" y1="558.6513" x2="-24.718" y2="616.5183" gradientTransform="matrix(8 0 0 -8 453.9435 4943.3965)">
		<stop  offset="0" style="stop-color:#006DF0"/>
		<stop  offset="1" style="stop-color:#00E7F0"/>
	</linearGradient>
	<path style="fill:url(#SVGID_4_);" d="M363.631,160.666c-3.124-3.123-8.188-3.123-11.312,0L222.207,290.778l-62.224-62.224
		c-3.178-3.069-8.243-2.981-11.312,0.197c-2.994,3.1-2.994,8.015,0,11.115l67.88,67.88c3.124,3.123,8.188,3.123,11.312,0
		l135.768-135.768C366.754,168.854,366.754,163.79,363.631,160.666L363.631,160.666z"/>
</g>
<g>
</g>
<g>
</g>
<g>
</g>
<g>
</g>
<g>
</g>
<g>
</g>
<g>
</g>
<g>
</g>
<g>
</g>
<g>
</g>
<g>
</g>
<g>
</g>
<g>
</g>
<g>
</g>
<g>
</g>
</svg>
